<svg width="34" height="34" viewBox="0 0 34 34" fill="none" xmlns="http://www.w3.org/2000/svg">
<rect width="34" height="34" fill="white" fill-opacity="0.06"/>
<path d="M18.0092 21.8021L14.1267 17.3694C14.0806 17.3166 14.0481 17.2595 14.029 17.1979C14.0097 17.1363 14 17.0704 14 17C14 16.9296 14.0097 16.8637 14.029 16.8021C14.0481 16.7405 14.0806 16.6834 14.1267 16.6306L18.0092 12.1847C18.1167 12.0616 18.2512 12 18.4124 12C18.5737 12 18.712 12.066 18.8272 12.1979C18.9424 12.3298 19 12.4837 19 12.6596C19 12.8355 18.9424 12.9894 18.8272 13.1214L15.4401 17L18.8272 20.8786C18.9347 21.0018 18.9885 21.1534 18.9885 21.3335C18.9885 21.514 18.9309 21.6702 18.8157 21.8021C18.7005 21.934 18.5661 22 18.4124 22C18.2588 22 18.1244 21.934 18.0092 21.8021Z" fill="#F9F2E5"/>
</svg>
